<svg viewBox="0 0 1000 1000" xmlns="http://www.w3.org/2000/svg"><defs><clipPath id="b"><path fill="currentColor" d="M904.5 627.5q-53.5 127.5-157 221T497 951.5q-147 9.5-237.5-101T99.5 620Q30 500 82 367t161.5-225.5Q353 49 501 45.5T745 147q96 105 154.5 229t5 251.5Z"/></clipPath><pattern id="a" patternUnits="userSpaceOnUse" width="25" height="25" viewBox="0 0 100 100" fill="#f29727"><circle cx="50" cy="50" r="12.5"/></pattern></defs><path fill="url(#a)" d="M904.5 627.5q-53.5 127.5-157 221T497 951.5q-147 9.5-237.5-101T99.5 620Q30 500 82 367t161.5-225.5Q353 49 501 45.5T745 147q96 105 154.5 229t5 251.5Z" transform="translate(-60 -60)"/><g clip-path="url(#b)"><path fill="#f29727" d="M904.5 627.5q-53.5 127.5-157 221T497 951.5q-147 9.5-237.5-101T99.5 620Q30 500 82 367t161.5-225.5Q353 49 501 45.5T745 147q96 105 154.5 229t5 251.5Z"/></g></svg>